<svg width="75" height="75" viewBox="0 0 75 75" fill="none" xmlns="http://www.w3.org/2000/svg">
<path d="M11.0264 22.7921L28.125 32.2913" stroke="#E6E9EF" stroke-width="1.5" stroke-linecap="round" stroke-linejoin="round"/>
<path d="M68.75 6.25H62.5M37.5 37.5V31.25C37.5 20.1712 44.7066 10.7755 54.6875 7.49494" stroke="#E6E9EF" stroke-width="3" stroke-linecap="round" stroke-linejoin="round"/>
<path d="M68.75 37.5H62.5M37.5 68.75V62.5C37.5 51.4212 44.7066 42.0256 54.6875 38.745" stroke="#E6E9EF" stroke-width="3" stroke-linecap="round" stroke-linejoin="round"/>
<path d="M37.5 68.75L10.3394 53.6609C9.74416 53.33 9.375 52.7028 9.375 52.0218L9.37494 22.9782C9.37494 22.2973 9.74413 21.6699 10.3394 21.3392L36.5894 6.75584C37.1556 6.44125 37.8444 6.44125 38.4106 6.75584L46.875 11.4583" stroke="#E6E9EF" stroke-width="3" stroke-linecap="round" stroke-linejoin="round"/>
<path d="M37.5 37.4997L11.0263 22.7921" stroke="#E6E9EF" stroke-width="3" stroke-linecap="round" stroke-linejoin="round"/>
<path d="M37.5 65.625V37.5" stroke="#E6E9EF" stroke-width="3" stroke-linecap="round" stroke-linejoin="round"/>
<path d="M46.875 42.1875V12.5" stroke="#D11021" stroke-width="1.5" stroke-linecap="round" stroke-linejoin="round"/>
</svg>
