<svg width="40" height="40" viewBox="0 0 40 40" fill="none" xmlns="http://www.w3.org/2000/svg">
<path d="M11.6667 15.0175L11.6842 14.998" stroke="#E6E9EF" stroke-width="3" stroke-linecap="round" stroke-linejoin="round"/>
<path d="M18.3333 15.0175L18.3508 14.998" stroke="#E6E9EF" stroke-width="3" stroke-linecap="round" stroke-linejoin="round"/>
<path d="M11.6667 21.6845L11.6842 21.665" stroke="#E6E9EF" stroke-width="3" stroke-linecap="round" stroke-linejoin="round"/>
<path d="M18.3333 21.6845L18.3508 21.665" stroke="#E6E9EF" stroke-width="3" stroke-linecap="round" stroke-linejoin="round"/>
<path d="M11.6667 28.351L11.6842 28.3315" stroke="#E6E9EF" stroke-width="3" stroke-linecap="round" stroke-linejoin="round"/>
<path d="M18.3333 28.351L18.3508 28.3315" stroke="#E6E9EF" stroke-width="3" stroke-linecap="round" stroke-linejoin="round"/>
<path d="M6 35H25V28.3333V21.6667V15V6C25 5.44772 24.5523 5 24 5H16C15.4477 5 15 5.44772 15 6V8.33333H6C5.44772 8.33333 5 8.78105 5 9.33333V34C5 34.5523 5.44772 35 6 35Z" stroke="#E6E9EF" stroke-width="3" stroke-linecap="round" stroke-linejoin="round"/>
</svg>
