<svg width="75" height="75" viewBox="0 0 75 75" fill="none" xmlns="http://www.w3.org/2000/svg">
<path d="M13.125 20.625C12.1304 20.625 11.1766 21.0201 10.4733 21.7234C9.77009 22.4266 9.375 23.3804 9.375 24.375C9.375 25.3696 9.77009 26.3234 10.4733 27.0266C11.1766 27.7299 12.1304 28.125 13.125 28.125C14.1196 28.125 15.0734 27.7299 15.7766 27.0266C16.4799 26.3234 16.875 25.3696 16.875 24.375C16.875 23.3804 16.4799 22.4266 15.7766 21.7234C15.0734 21.0201 14.1196 20.625 13.125 20.625ZM13.125 16.875C12.74 16.875 12.3625 16.9037 11.9925 16.9612C12.7118 15.267 13.914 13.8219 15.4491 12.8063C16.9842 11.7907 18.7843 11.2494 20.625 11.25H54.375C56.8614 11.25 59.246 12.2377 61.0041 13.9959C62.7623 15.754 63.75 18.1386 63.75 20.625V54.375C63.75 56.8614 62.7623 59.246 61.0041 61.0041C59.246 62.7623 56.8614 63.75 54.375 63.75H20.625C18.1386 63.75 15.754 62.7623 13.9959 61.0041C12.2377 59.246 11.25 56.8614 11.25 54.375V31.6388C12.4798 31.9563 13.7702 31.9563 15 31.6388V54.375C15 55.8668 15.5926 57.2976 16.6475 58.3525C17.7024 59.4074 19.1332 60 20.625 60H54.375C55.8668 60 57.2976 59.4074 58.3525 58.3525C59.4074 57.2976 60 55.8668 60 54.375V20.625C60 19.1332 59.4074 17.7024 58.3525 16.6475C57.2976 15.5926 55.8668 15 54.375 15H20.625C18.7013 15 17.0025 15.9675 15.9862 17.4375C15.0785 17.0646 14.1064 16.8735 13.125 16.875ZM26.25 31.875C26.25 31.3777 26.4475 30.9008 26.7992 30.5492C27.1508 30.1975 27.6277 30 28.125 30H46.875C47.3723 30 47.8492 30.1975 48.2008 30.5492C48.5525 30.9008 48.75 31.3777 48.75 31.875C48.75 32.3723 48.5525 32.8492 48.2008 33.2008C47.8492 33.5525 47.3723 33.75 46.875 33.75H28.125C27.6277 33.75 27.1508 33.5525 26.7992 33.2008C26.4475 32.8492 26.25 32.3723 26.25 31.875ZM28.125 41.25C27.6277 41.25 27.1508 41.4475 26.7992 41.7992C26.4475 42.1508 26.25 42.6277 26.25 43.125C26.25 43.6223 26.4475 44.0992 26.7992 44.4508C27.1508 44.8025 27.6277 45 28.125 45H39.375C39.8723 45 40.3492 44.8025 40.7008 44.4508C41.0525 44.0992 41.25 43.6223 41.25 43.125C41.25 42.6277 41.0525 42.1508 40.7008 41.7992C40.3492 41.4475 39.8723 41.25 39.375 41.25H28.125Z" fill="#E6E9EF"/>
<circle cx="13.1665" cy="24.5" r="4.5" fill="#D11021"/>
</svg>
