<?xml version="1.0" encoding="UTF-8"?>
<svg version="1.1" xmlns="http://www.w3.org/2000/svg" width="1080" height="968">
<path d="M0 0 C1.10327637 -0.00571014 2.20655273 -0.01142029 3.34326172 -0.01730347 C4.53878159 -0.01842133 5.73430145 -0.01953918 6.96604919 -0.02069092 C8.23661163 -0.02565582 9.50717407 -0.03062073 10.8162384 -0.03573608 C14.28924807 -0.04880086 17.76223846 -0.05529252 21.23526883 -0.05974674 C23.40660372 -0.06268493 25.57793341 -0.06679095 27.74926567 -0.07125092 C34.54786197 -0.08490551 41.3464463 -0.09458412 48.14505535 -0.09845281 C55.98506114 -0.10293935 63.82489308 -0.12052325 71.664846 -0.1494534 C77.73293907 -0.17106669 83.80098319 -0.18115677 89.86911434 -0.18249393 C93.4904535 -0.18354151 97.11162878 -0.18944013 100.73292732 -0.20731354 C104.76907565 -0.22685011 108.80485885 -0.22250674 112.84104919 -0.21600342 C114.03859329 -0.2252182 115.23613739 -0.23443298 116.4699707 -0.243927 C117.57042725 -0.23835785 118.67088379 -0.2327887 119.8046875 -0.22705078 C121.23514326 -0.22925062 121.23514326 -0.22925062 122.69449711 -0.2314949 C126.66505367 0.32697633 129.30299379 2.14030301 132.15135193 4.89044189 C133.90090638 8.20538718 133.68552856 10.40155304 133.33885193 14.14044189 C132.09593626 17.29585238 130.42698977 20.15646145 128.71385193 23.07794189 C128.22239685 23.9427417 127.73094177 24.8075415 127.22459412 25.69854736 C125.61275954 28.52252578 123.9780325 31.33225923 122.33885193 34.14044189 C121.23196232 36.05052932 120.12519248 37.96068615 119.01853943 39.87091064 C116.69070877 43.87777742 114.3518922 47.87801864 112.00682068 51.87481689 C108.27559222 58.23815225 104.58407135 64.62393744 100.90135193 71.01544189 C100.27905701 72.09519287 99.65676208 73.17494385 99.01560974 74.28741455 C97.75356467 76.47758724 96.49168341 78.66785432 95.22996521 80.85821533 C91.48151963 87.364038 87.72791011 93.86688272 83.9750824 100.37017822 C80.13268018 107.0293035 76.29385812 113.69047684 72.45750427 120.35308838 C70.57399594 123.62029671 68.68534174 126.88448448 66.79588318 130.14825439 C64.62424251 133.90127961 62.47491933 137.66515471 60.35057068 141.44512939 C59.47168994 142.98941475 58.5927856 144.53368667 57.71385193 146.07794189 C57.33639832 146.76380371 56.9589447 147.44966553 56.5700531 148.15631104 C54.3542207 152.01690562 52.46980582 154.37463633 48.33885193 156.14044189 C45.07224314 156.65741824 42.45528212 156.20803511 39.33885193 155.14044189 C34.13304067 150.10385852 30.79468969 142.92108426 27.33885193 136.64044189 C26.19186428 134.58364312 25.04337884 132.52767902 23.89353943 130.47247314 C23.01327087 128.89780273 23.01327087 128.89780273 22.11521912 127.2913208 C19.28541564 122.27188104 16.37735574 117.29912578 13.46385193 112.32794189 C6.68244981 100.74340054 -0.0307472 89.12050673 -6.73048401 77.48858643 C-8.72741924 74.02551488 -10.72888049 70.56509407 -12.73146057 67.10528564 C-13.40671579 65.93783041 -14.0819278 64.77035018 -14.75709534 63.60284424 C-16.02479039 61.41117182 -17.29343576 59.22004868 -18.56324768 57.02960205 C-20.27268654 54.07220873 -21.97041882 51.1085667 -23.66114807 48.14044189 C-24.23204163 47.14383545 -24.80293518 46.147229 -25.39112854 45.12042236 C-25.93269592 44.15636475 -26.47426331 43.19230713 -27.03224182 42.19903564 C-27.51491516 41.34495117 -27.9975885 40.4908667 -28.49488831 39.61090088 C-31.56259903 33.11264573 -31.53052672 25.49483027 -29.66114807 18.64044189 C-26.81877551 11.02074833 -21.03610915 5.18978008 -13.71583557 1.79669189 C-9.21425835 0.35892578 -4.70022612 0.01465553 0 0 Z " fill="#D62E40" transform="translate(613.6611480712891,496.85955810546875)"/>
<path d="M0 0 C1.09481689 -0.00426498 2.18963379 -0.00852997 3.31762695 -0.01292419 C4.51921951 -0.01247101 5.72081207 -0.01201782 6.95881653 -0.0115509 C8.22412201 -0.01490952 9.48942749 -0.01826813 10.79307556 -0.02172852 C14.26646961 -0.03056946 17.73983903 -0.03290675 21.21324325 -0.0335443 C23.38508787 -0.0342551 25.55692623 -0.03639006 27.7287693 -0.03904152 C35.31115237 -0.04829738 42.89351785 -0.05237637 50.47590637 -0.05158997 C57.53370441 -0.05099008 64.59142578 -0.06152371 71.64920443 -0.07733363 C77.71473619 -0.09043452 83.78024299 -0.09577275 89.84578878 -0.09513456 C93.46555067 -0.09488019 97.08524454 -0.09769719 100.70499229 -0.10831261 C104.7479864 -0.11984479 108.79081045 -0.11523119 112.83381653 -0.10920715 C114.62102364 -0.11763641 114.62102364 -0.11763641 116.44433594 -0.12623596 C126.27975635 -0.08903336 135.05329783 0.95994731 142.60652161 7.85636902 C148.08379817 13.63219734 150.7035624 19.55407547 151.15730286 27.50871277 C150.62817541 37.69966068 144.99790714 46.65051859 139.90730286 55.19621277 C138.9010367 56.91237901 137.89478469 58.62855374 136.88938904 60.3452301 C135.85297029 62.11242435 134.81278602 63.87735968 133.77204895 65.64201355 C130.54832387 71.11628877 127.3878645 76.62711097 124.21980286 82.13371277 C122.97008971 84.3005449 121.720089 86.46721121 120.46980286 88.63371277 C119.54167786 90.24246277 119.54167786 90.24246277 118.59480286 91.88371277 C116.71980286 95.13371277 114.84480286 98.38371277 112.96980286 101.63371277 C112.35032776 102.70766296 111.73085266 103.78161316 111.09260559 104.8881073 C109.85060693 107.04051639 108.60793819 109.19253897 107.36457825 111.34416199 C104.45619891 116.37893814 101.55432913 121.41710454 98.67704773 126.4697113 C97.66172628 128.2519042 96.64422011 130.03283189 95.62605286 131.81340027 C94.35217223 134.04269137 93.08236375 136.27431645 91.81745911 138.50871277 C82.68222223 154.46492652 82.68222223 154.46492652 78.39729309 155.92521667 C74.79109406 156.56273764 72.61448003 156.57616804 69.28205872 154.92814636 C66.36472095 152.88503702 65.20546948 151.16343431 63.47761536 148.06730652 C62.89431458 147.03799011 62.31101379 146.00867371 61.71003723 144.94816589 C61.09450989 143.83377136 60.47898254 142.71937683 59.84480286 141.57121277 C59.18531465 140.39924556 58.52448274 139.22803357 57.86238098 138.05754089 C56.48834242 135.62602541 55.1201345 133.19136691 53.75593567 130.75431824 C50.63105267 125.18318844 47.42111559 119.66114404 44.21980286 114.13371277 C42.96940301 111.96727683 41.71940426 109.80060935 40.46980286 107.63371277 C39.85105286 106.56121277 39.23230286 105.48871277 38.59480286 104.38371277 C31.71980286 92.4670461 24.84480286 80.55037944 17.96980286 68.63371277 C17.04046936 67.02290833 17.04046936 67.02290833 16.09236145 65.37956238 C14.85040541 63.22678461 13.60854246 61.07395313 12.36677551 58.92106628 C9.46333373 53.88754362 6.55901786 48.85453229 3.65126038 43.82350159 C2.62634883 42.05008669 1.60174163 40.27649631 0.57722473 38.50285339 C-0.70472452 36.28375503 -1.98723821 34.06498261 -3.27043152 31.84660339 C-4.94593939 28.94547541 -6.61397142 26.04017876 -8.28019714 23.13371277 C-8.78051453 22.27173279 -9.28083191 21.40975281 -9.79631042 20.52165222 C-10.24989929 19.72847595 -10.70348816 18.93529968 -11.17082214 18.11808777 C-11.56559753 17.43327332 -11.96037292 16.74845886 -12.36711121 16.04289246 C-13.89397283 12.85036361 -13.92943689 10.57468342 -13.28019714 7.13371277 C-9.9064755 1.45098012 -6.40972883 0.01127285 0 0 Z " fill="#D62E3F" transform="translate(346.2801971435547,496.8662872314453)"/>
<path d="M0 0 C2.85744096 2.05251626 4.04145979 3.80678724 5.74951172 6.86743164 C6.3328125 7.89674805 6.91611328 8.92606445 7.51708984 9.98657227 C8.13261719 11.1009668 8.74814453 12.21536133 9.38232422 13.36352539 C10.04181242 14.5354926 10.70264434 15.70670459 11.36474609 16.87719727 C12.73878465 19.30871275 14.10699257 21.74337125 15.47119141 24.18041992 C18.59607441 29.75154972 21.80601149 35.27359412 25.00732422 40.80102539 C26.25772407 42.96746132 27.50772282 45.13412881 28.75732422 47.30102539 C29.37607422 48.37352539 29.99482422 49.44602539 30.63232422 50.55102539 C37.50732422 62.46769206 44.38232422 74.38435872 51.25732422 86.30102539 C51.87687988 87.37489502 52.49643555 88.44876465 53.13476562 89.55517578 C54.37672166 91.70795355 55.61858462 93.86078502 56.86035156 96.01367188 C59.76379335 101.04719454 62.66810922 106.08020587 65.5758667 111.11123657 C66.60077825 112.88465147 67.62538545 114.65824185 68.64990234 116.43188477 C69.93185159 118.65098312 71.21436529 120.86975555 72.49755859 123.08813477 C74.17306646 125.98926275 75.84109849 128.8945594 77.50732422 131.80102539 C78.0076416 132.66300537 78.50795898 133.52498535 79.0234375 134.41308594 C79.47702637 135.20626221 79.93061523 135.99943848 80.39794922 136.81665039 C80.79272461 137.50146484 81.1875 138.1862793 81.59423828 138.8918457 C83.1210999 142.08437454 83.15656396 144.36005474 82.50732422 147.80102539 C80.4512089 151.26436793 78.41308884 153.49910385 74.50732422 154.80102539 C72.74923315 154.89554358 70.98775432 154.93164173 69.22712708 154.93473816 C68.13231018 154.93900314 67.03749329 154.94326813 65.90950012 154.94766235 C64.70790756 154.94720917 63.506315 154.94675598 62.26831055 154.94628906 C61.00300507 154.94964767 59.73769958 154.95300629 58.43405151 154.95646667 C54.96065746 154.96530762 51.48728804 154.96764491 48.01388383 154.96828246 C45.84203921 154.96899326 43.67020084 154.97112822 41.49835777 154.97377968 C33.91597471 154.98303554 26.33360923 154.98711453 18.7512207 154.98632812 C11.69342267 154.98572824 4.63570129 154.99626187 -2.42207736 155.01207179 C-8.48760912 155.02517268 -14.55311591 155.03051091 -20.6186617 155.02987272 C-24.2384236 155.02961835 -27.85811747 155.03243535 -31.47786522 155.04305077 C-35.52085933 155.05458295 -39.56368337 155.04996935 -43.60668945 155.04394531 C-44.79816086 155.04956482 -45.98963226 155.05518433 -47.21720886 155.06097412 C-57.05262928 155.02377152 -65.82617076 153.97479085 -73.37939453 147.07836914 C-78.89884814 141.25806481 -81.51876252 135.32603051 -81.86767578 127.30102539 C-81.33564824 117.3479131 -76.17344429 109.26930211 -71.24267578 100.86352539 C-70.52452526 99.62521019 -69.80717303 98.38643172 -69.09057617 97.1472168 C-67.61765491 94.60275039 -66.14034548 92.06091598 -64.65917969 89.52124023 C-62.01277638 84.98163055 -59.39226297 80.42720537 -56.77099609 75.87304688 C-54.30236676 71.58568599 -51.82676053 67.30236964 -49.3515625 63.01879883 C-46.85505536 58.69729053 -44.36108702 54.37432055 -41.86767578 50.05102539 C-40.6249376 47.89694588 -39.3814567 45.74329468 -38.13720703 43.59008789 C-35.228874 38.55549458 -32.3271122 33.51747583 -29.44992065 28.46502686 C-28.4345992 26.68283396 -27.41709303 24.90190627 -26.39892578 23.12133789 C-25.12504515 20.89204679 -23.85523668 18.6604217 -22.59033203 16.42602539 C-10.33896365 -4.97303139 -10.33896365 -4.97303139 0 0 Z " fill="#D52D3F" transform="translate(664.49267578125,316.198974609375)"/>
<path d="M0 0 C5.20581126 5.03658337 8.54416223 12.21935764 12 18.5 C13.14698765 20.55679877 14.29547308 22.61276288 15.4453125 24.66796875 C16.0321582 25.71774902 16.61900391 26.7675293 17.22363281 27.84912109 C20.05343629 32.86856085 22.96149618 37.84131611 25.875 42.8125 C31.38630296 52.22735491 36.86083173 61.66249798 42.30395508 71.11694336 C45.20953613 76.16379734 48.11803384 81.20876245 51.04728699 86.24191284 C52.0646216 87.99022008 53.08048594 89.73937369 54.09594727 91.48876953 C55.36181704 93.6684857 56.63032618 95.8466723 57.90209961 98.02294922 C71.74058807 121.88718331 71.74058807 121.88718331 69.609375 134.26953125 C67.63897522 141.48169966 63.0832747 147.22947904 56.91015625 151.41796875 C51.28397388 154.40924037 45.67828897 155.12067522 39.33885193 155.14044189 C38.23557556 155.14615204 37.13229919 155.15186218 35.99559021 155.15774536 C34.80007034 155.15886322 33.60455048 155.15998108 32.37280273 155.16113281 C31.1022403 155.16609772 29.83167786 155.17106262 28.52261353 155.17617798 C25.04960386 155.18924276 21.57661347 155.19573442 18.1035831 155.20018864 C15.93224821 155.20312682 13.76091852 155.20723285 11.58958626 155.21169281 C4.79098996 155.22534741 -2.00759437 155.23502601 -8.80620342 155.2388947 C-16.64620921 155.24338124 -24.48604115 155.26096514 -32.32599407 155.2898953 C-38.39408714 155.31150859 -44.46213126 155.32159866 -50.53026241 155.32293582 C-54.15160157 155.3239834 -57.77277685 155.32988203 -61.39407539 155.34775543 C-65.43022372 155.367292 -69.46600692 155.36294863 -73.50219727 155.35644531 C-74.69974136 155.3656601 -75.89728546 155.37487488 -77.13111877 155.3843689 C-78.78180359 155.37601517 -78.78180359 155.37601517 -80.46583557 155.36749268 C-81.41947274 155.36895924 -82.37310991 155.3704258 -83.35564518 155.3719368 C-87.32620174 154.81346557 -89.96414187 153.00013889 -92.8125 150.25 C-94.56205445 146.93505472 -94.34667663 144.73888885 -94 141 C-92.75708434 137.84458952 -91.08813784 134.98398044 -89.375 132.0625 C-88.63781738 130.76530029 -88.63781738 130.76530029 -87.88574219 129.44189453 C-86.27390761 126.61791611 -84.63918057 123.80818266 -83 121 C-81.89311039 119.08991258 -80.78634055 117.17975574 -79.6796875 115.26953125 C-77.35185684 111.26266447 -75.01304027 107.26242325 -72.66796875 103.265625 C-68.93674029 96.90228965 -65.24521942 90.51650445 -61.5625 84.125 C-60.94020508 83.04524902 -60.31791016 81.96549805 -59.67675781 80.85302734 C-58.41471274 78.66285466 -57.15283148 76.47258757 -55.89111328 74.28222656 C-52.1426677 67.7764039 -48.38905819 61.27355917 -44.63623047 54.77026367 C-40.79382825 48.1111384 -36.95500619 41.44996505 -33.11865234 34.78735352 C-31.23514401 31.52014519 -29.34648981 28.25595741 -27.45703125 24.9921875 C-25.28539058 21.23916228 -23.1360674 17.47528719 -21.01171875 13.6953125 C-20.13283801 12.15102715 -19.25393367 10.60675523 -18.375 9.0625 C-17.99754639 8.37663818 -17.62009277 7.69077637 -17.23120117 6.98413086 C-13.03686269 -0.32357004 -7.97973369 -2.73361154 0 0 Z " fill="#D72F40" transform="translate(427,316)"/>
<path d="M0 0 C6.81714293 4.69410695 10.62896934 10.66943721 14.5625 17.8125 C15.78384045 19.96745569 17.0051951 22.12240333 18.2265625 24.27734375 C18.84821289 25.38706543 19.46986328 26.49678711 20.11035156 27.64013672 C23.17000172 33.08030539 26.30908235 38.47419531 29.4375 43.875 C30.69724774 46.05953083 31.95635935 48.24442862 33.21484375 50.4296875 C36.9735538 56.9548624 40.73638863 63.47765118 44.5 70 C48.00644483 76.07716164 51.51274701 82.15440473 55.01696777 88.23284912 C56.02619104 89.98341241 57.03553836 91.73390411 58.04492188 93.484375 C59.3016766 95.66392165 60.55820586 97.84359832 61.81445312 100.0234375 C62.39130859 101.02375 62.96816406 102.0240625 63.5625 103.0546875 C64.12291992 104.02937988 64.68333984 105.00407227 65.26074219 106.00830078 C66.47953028 108.10473948 67.71612786 110.1908783 68.96582031 112.26904297 C69.91859863 113.86063232 69.91859863 113.86063232 70.890625 115.484375 C71.46844727 116.43795898 72.04626953 117.39154297 72.64160156 118.37402344 C74.72687553 122.40515334 74.92141414 124.54649831 74 129 C70.1908823 134.71845943 70.1908823 134.71845943 65.8062439 135.75504684 C64.59320587 135.757309 63.38016785 135.75957115 62.13037109 135.76190186 C61.45175711 135.7712618 60.77314312 135.78062174 60.07396507 135.79026532 C57.80632065 135.81414597 55.54109858 135.79526687 53.2734375 135.77636719 C51.64535107 135.78449981 50.01727568 135.79518427 48.38922119 135.80822754 C43.97169161 135.83557416 39.55500303 135.82497881 35.1374588 135.80595303 C30.51397947 135.79075929 25.89057201 135.80485115 21.26708984 135.81427002 C13.5027982 135.82518511 5.73884902 135.81080252 -2.02539062 135.78222656 C-11.00123094 135.74957279 -19.97625355 135.76014987 -28.95207405 135.793185 C-36.65926677 135.82041535 -44.36621336 135.82425399 -52.07343864 135.80855298 C-56.67631305 135.79919999 -61.27880314 135.79794804 -65.88165283 135.81777191 C-70.20925408 135.83510849 -74.53580147 135.82307634 -78.86328888 135.78840637 C-80.45115662 135.78047465 -82.0391131 135.78274867 -83.6269455 135.79598236 C-85.79594963 135.81239275 -87.96158179 135.79181539 -90.13037109 135.76190186 C-91.34340912 135.7596397 -92.55644714 135.75737755 -93.8062439 135.75504684 C-98.36745773 134.67671462 -99.42111972 132.86590979 -102 129 C-103.73660788 120.83615264 -98.9670585 114.78217408 -94.875 108 C-94.13896755 106.75097523 -93.40461616 105.50095845 -92.671875 104.25 C-91.17800322 101.70544737 -89.67496592 99.16670601 -88.16308594 96.6328125 C-85.63925231 92.40126184 -83.15833696 88.14514771 -80.68017578 83.88671875 C-79.55322272 81.95049483 -78.42396193 80.01561238 -77.29248047 78.08203125 C-72.80870096 70.41797009 -68.39638815 62.71433737 -64 55 C-58.8455214 45.95994999 -53.66934155 36.93309322 -48.4375 27.9375 C-47.89029297 26.99326172 -47.34308594 26.04902344 -46.77929688 25.07617188 C-32.53406282 0.64829805 -32.53406282 0.64829805 -21.38671875 -2.53125 C-13.88545786 -4.00449273 -6.88828001 -3.35405627 0 0 Z " fill="#D52D3E" transform="translate(554,541)"/>
<path d="M0 0 C0.67861399 -0.00935994 1.35722797 -0.01871989 2.05640602 -0.02836347 C4.32405045 -0.05224412 6.58927251 -0.03336502 8.85693359 -0.01446533 C10.48502002 -0.02259796 12.11309541 -0.03328241 13.7411499 -0.04632568 C18.15867948 -0.07367231 22.57536807 -0.06307696 26.99291229 -0.04405117 C31.61639162 -0.02885744 36.23979908 -0.0429493 40.86328125 -0.05236816 C48.62757289 -0.06328326 56.39152207 -0.04890066 64.15576172 -0.02032471 C73.13160203 0.01232906 82.10662465 0.00175199 91.08244514 -0.03128314 C98.78963786 -0.0585135 106.49658446 -0.06235213 114.20380974 -0.04665112 C118.80668415 -0.03729813 123.40917423 -0.03604618 128.01202393 -0.05587006 C132.33962517 -0.07320664 136.66617256 -0.06117449 140.99365997 -0.02650452 C142.58152771 -0.01857279 144.16948419 -0.02084681 145.75731659 -0.03408051 C147.92632073 -0.05049089 150.09195289 -0.02991354 152.26074219 0 C154.08029922 0.00339323 154.08029922 0.00339323 155.93661499 0.00685501 C160.49782883 1.08518723 161.55149081 2.89599206 164.13037109 6.76190186 C165.86697898 14.92574922 161.09742959 20.97972777 157.00537109 27.76190186 C156.26933864 29.01092662 155.53498725 30.26094341 154.80224609 31.51190186 C153.30837431 34.05645448 151.80533701 36.59519584 150.29345703 39.12908936 C147.7696234 43.36064001 145.28870805 47.61675415 142.81054688 51.87518311 C141.68359381 53.81140703 140.55433302 55.74628948 139.42285156 57.67987061 C134.93907206 65.34393176 130.52675924 73.04756448 126.13037109 80.76190186 C120.9758925 89.80195187 115.79971265 98.82880864 110.56787109 107.82440186 C109.74706055 109.24075928 109.74706055 109.24075928 108.90966797 110.68572998 C94.66443391 135.1136038 94.66443391 135.1136038 83.51708984 138.29315186 C76.01582895 139.76639458 69.0186511 139.11595813 62.13037109 135.76190186 C55.31322817 131.06779491 51.50140175 125.09246465 47.56787109 117.94940186 C46.34653065 115.79444616 45.125176 113.63949852 43.90380859 111.48455811 C43.2821582 110.37483643 42.66050781 109.26511475 42.02001953 108.12176514 C38.96036937 102.68159647 35.82128874 97.28770654 32.69287109 91.88690186 C31.43312335 89.70237102 30.17401174 87.51747323 28.91552734 85.33221436 C25.1568173 78.80703945 21.39398246 72.28425067 17.63037109 65.76190186 C14.12392627 59.68474021 10.61762409 53.60749713 7.11340332 47.52905273 C6.10418005 45.77848945 5.09483273 44.02799775 4.08544922 42.27752686 C2.8286945 40.09798021 1.57216524 37.91830353 0.31591797 35.73846436 C-0.2609375 34.73815186 -0.83779297 33.73783936 -1.43212891 32.70721436 C-1.99254883 31.73252197 -2.55296875 30.75782959 -3.13037109 29.75360107 C-4.34915919 27.65716238 -5.58575677 25.57102356 -6.83544922 23.49285889 C-7.47063477 22.43179932 -8.10582031 21.37073975 -8.76025391 20.27752686 C-9.33807617 19.32394287 -9.91589844 18.37035889 -10.51123047 17.38787842 C-12.59650443 13.35674852 -12.79104305 11.21540355 -11.86962891 6.76190186 C-8.35886242 1.49134387 -6.56619255 0.01224507 0 0 Z " fill="#D42D3E" transform="translate(463.86962890625,291.23809814453125)"/>
</svg>
